<svg width="288" height="382" viewBox="0 0 288 382" fill="none" xmlns="http://www.w3.org/2000/svg">
<g clip-path="url(#clip0_1_18)">
<path fill-rule="evenodd" clip-rule="evenodd" d="M127.106 352.85L129.06 355.555H131.497L128.806 352.341L131.474 349.104H129.049L127.106 351.729V347H125.14V355.555H127.106V352.85Z" fill="#AAFFFF"/>
<path fill-rule="evenodd" clip-rule="evenodd" d="M133.372 355.296C133.748 355.515 134.182 355.625 134.67 355.625C135.085 355.625 135.462 355.538 135.802 355.365C136.144 355.193 136.412 354.963 136.613 354.677V355.555H138.579V349.104H136.613V352.608C136.613 353.04 136.502 353.375 136.281 353.613C136.059 353.852 135.755 353.972 135.372 353.972C134.996 353.972 134.698 353.852 134.476 353.613C134.254 353.375 134.143 353.04 134.143 352.608V349.104H132.188V352.873C132.188 353.436 132.292 353.925 132.498 354.342C132.705 354.759 132.996 355.076 133.372 355.296Z" fill="#AAFFFF"/>
<path d="M141.959 347H139.993V355.555H141.959V347Z" fill="#AAFFFF"/>
<path d="M145.351 349.104H143.385V355.555H145.351V349.104Z" fill="#AAFFFF"/>
<path fill-rule="evenodd" clip-rule="evenodd" d="M148.743 352.85L150.697 355.555H153.136L150.444 352.341L153.111 349.104H150.686L148.743 351.729V347H146.778V355.555H148.743V352.85Z" fill="#AAFFFF"/>
<path d="M163.251 353.66H154.56V355.557H163.251V353.66Z" fill="#AAFFFF"/>
<path fill-rule="evenodd" clip-rule="evenodd" d="M129.555 359.653C129.372 359.353 129.108 359.109 128.767 358.925C128.425 358.74 128.028 358.648 127.578 358.648C127.049 358.648 126.569 358.782 126.141 359.052C125.711 359.322 125.373 359.707 125.123 360.208C124.874 360.708 124.749 361.29 124.749 361.954C124.749 362.618 124.874 363.201 125.123 363.706C125.373 364.212 125.711 364.6 126.141 364.874C126.569 365.148 127.045 365.285 127.565 365.285C128.018 365.285 128.415 365.193 128.756 365.008C129.098 364.823 129.363 364.579 129.555 364.28V365.193H131.521V358.742H129.555V359.653ZM129.146 363.133C128.874 363.418 128.543 363.561 128.151 363.561C127.76 363.561 127.428 363.417 127.156 363.127C126.884 362.838 126.747 362.448 126.747 361.954C126.747 361.461 126.884 361.074 127.156 360.792C127.428 360.511 127.76 360.37 128.151 360.37C128.541 360.37 128.874 360.513 129.146 360.797C129.418 361.083 129.555 361.471 129.555 361.965C129.555 362.458 129.418 362.848 129.146 363.133Z" fill="#AAFFFF"/>
<path fill-rule="evenodd" clip-rule="evenodd" d="M137.36 359.629C137.161 359.329 136.887 359.089 136.539 358.912C136.19 358.736 135.806 358.648 135.383 358.648C134.854 358.648 134.374 358.782 133.946 359.052C133.516 359.322 133.178 359.707 132.928 360.208C132.679 360.708 132.554 361.29 132.554 361.954C132.554 362.618 132.679 363.201 132.928 363.706C133.178 364.212 133.516 364.6 133.946 364.874C134.374 365.148 134.854 365.285 135.383 365.285C135.835 365.285 136.232 365.193 136.572 365.008C136.913 364.823 137.175 364.576 137.36 364.267V365.193H139.326V356.638H137.36V359.629ZM136.953 363.133C136.681 363.418 136.35 363.561 135.958 363.561C135.566 363.561 135.235 363.417 134.963 363.127C134.691 362.838 134.554 362.448 134.554 361.954C134.554 361.461 134.691 361.074 134.963 360.792C135.235 360.511 135.566 360.37 135.958 360.37C136.348 360.37 136.681 360.513 136.953 360.797C137.225 361.083 137.362 361.471 137.362 361.965C137.36 362.458 137.225 362.848 136.953 363.133Z" fill="#AAFFFF"/>
<path fill-rule="evenodd" clip-rule="evenodd" d="M142.718 359.814V358.738H140.753V365.189H142.718V362.195C142.718 361.663 142.841 361.292 143.086 361.079C143.33 360.868 143.699 360.762 144.19 360.762L144.731 358.67C144.309 358.67 143.926 358.773 143.581 358.977C143.236 359.181 142.949 359.46 142.718 359.814Z" fill="#AAFFFF"/>
<path d="M147.639 358.74H145.674V365.191H147.639V358.74Z" fill="#AAFFFF"/>
<path fill-rule="evenodd" clip-rule="evenodd" d="M153.48 359.653C153.297 359.353 153.033 359.109 152.692 358.925C152.35 358.74 151.953 358.648 151.503 358.648C150.974 358.648 150.494 358.782 150.066 359.052C149.636 359.322 149.298 359.707 149.048 360.208C148.799 360.708 148.674 361.29 148.674 361.954C148.674 362.618 148.799 363.201 149.048 363.706C149.298 364.212 149.636 364.6 150.066 364.874C150.494 365.148 150.971 365.285 151.491 365.285C151.943 365.285 152.34 365.193 152.681 365.008C153.023 364.823 153.288 364.579 153.48 364.28V365.193H155.446V358.742H153.48V359.653ZM153.071 363.133C152.799 363.418 152.468 363.561 152.076 363.561C151.685 363.561 151.354 363.417 151.082 363.127C150.809 362.838 150.672 362.448 150.672 361.954C150.672 361.461 150.809 361.074 151.082 360.792C151.354 360.511 151.685 360.37 152.076 360.37C152.466 360.37 152.799 360.513 153.071 360.797C153.344 361.083 153.48 361.471 153.48 361.965C153.48 362.458 153.344 362.848 153.071 363.133Z" fill="#AAFFFF"/>
<path fill-rule="evenodd" clip-rule="evenodd" d="M160.78 358.67C160.358 358.67 159.979 358.754 159.641 358.919C159.303 359.085 159.034 359.31 158.836 359.596V358.74H156.871V365.191H158.836V361.688C158.836 361.257 158.947 360.921 159.169 360.682C159.391 360.443 159.691 360.324 160.065 360.324C160.44 360.324 160.74 360.445 160.962 360.682C161.183 360.921 161.294 361.257 161.294 361.688V365.191H163.25V361.423C163.25 360.567 163.026 359.894 162.577 359.406C162.13 358.914 161.53 358.67 160.78 358.67Z" fill="#AAFFFF"/>
</g>
<defs>
<clipPath id="clip0_1_18">
<rect width="272" height="18.2853" fill="white" transform="translate(8 347)"/>
</clipPath>
</defs>
</svg>
